<?xml version="1.0"?>
<svg xmlns="http://www.w3.org/2000/svg" xmlns:xlink="http://www.w3.org/1999/xlink" version="1.1" id="Capa_1" x="0px" y="0px" viewBox="0 0 480.001 480.001" style="enable-background:new 0 0 480.001 480.001;" xml:space="preserve" width="512px" height="512px" class=""><g><g>
	<g>
		<path d="M434.4,69.76C443.038,62.284,448,51.424,448,40c0-22.091-17.909-40-40-40c-22.091,0-40,17.909-40,40    c0,11.424,4.963,22.284,13.6,29.76c-12.534,5.727-22.906,15.315-29.6,27.36c-6.694-12.045-17.066-21.633-29.6-27.36    C331.038,62.284,336,51.424,336,40c0-22.091-17.909-40-40-40c-22.091,0-40,17.909-40,40c0,11.424,4.963,22.284,13.6,29.76    c-12.534,5.727-22.906,15.315-29.6,27.36c-6.694-12.045-17.066-21.633-29.6-27.36C219.037,62.284,224,51.424,224,40    c0-22.091-17.909-40-40-40s-40,17.909-40,40c0,11.424,4.963,22.284,13.6,29.76c-12.534,5.727-22.906,15.315-29.6,27.36    c-6.694-12.045-17.066-21.633-29.6-27.36C107.037,62.284,112,51.424,112,40c0-22.091-17.909-40-40-40S32,17.909,32,40    c0,11.424,4.963,22.284,13.6,29.76C22.728,80.117,8.024,102.892,8,128v24c0,4.418,3.582,8,8,8h51.04l48,96H112    c-4.418,0-8,3.582-8,8c0,26.51,21.49,48,48,48h40v55.36L176,470.8c-0.663,4.368,2.341,8.447,6.709,9.11    c0.427,0.065,0.859,0.095,1.291,0.09h40c3.989,0.045,7.402-2.856,8-6.8l8-52.56l8,52.56c0.598,3.944,4.011,6.845,8,6.8h40    c4.418,0.05,8.04-3.491,8.09-7.909c0.005-0.432-0.025-0.864-0.09-1.291l-16-103.44V312h40c26.51,0,48-21.49,48-48    c0-4.418-3.582-8-8-8h-2.24l54.88-96H464c4.418,0,8-3.582,8-8v-24C471.976,102.892,457.273,80.117,434.4,69.76z M408,16    c13.255,0,24,10.745,24,24s-10.745,24-24,24s-24-10.745-24-24S394.745,16,408,16z M296,16c13.255,0,24,10.745,24,24    s-10.745,24-24,24s-24-10.745-24-24S282.745,16,296,16z M248,128c0-26.51,21.49-48,48-48c26.51,0,48,21.49,48,48v16h-96V128z     M291.04,160l48,96h-63.36c17.733-19.706,16.134-50.055-3.572-67.788c-19.706-17.733-50.055-16.134-67.788,3.572    c-16.427,18.254-16.427,45.962,0,64.216h-63.36l48-96H291.04z M272,224c0,17.673-14.327,32-32,32c-17.673,0-32-14.327-32-32    s14.327-32,32-32C257.673,192,272,206.327,272,224z M184,16c13.255,0,24,10.745,24,24s-10.745,24-24,24s-24-10.745-24-24    S170.745,16,184,16z M136,128c0-26.51,21.49-48,48-48c26.51,0,48,21.49,48,48v16h-96V128z M72,16c13.255,0,24,10.745,24,24    S85.255,64,72,64S48,53.255,48,40S58.745,16,72,16z M24,144v-16c0-26.51,21.49-48,48-48s48,21.49,48,48v16H24z M84.96,160H128    h43.04L128,246.08L84.96,160z M328,296h-48c-4.418,0-8,3.582-8,8v64c-0.04,0.399-0.04,0.801,0,1.2l14.64,94.8h-24L248,366.8    c0-4.418-3.582-8-8-8s-8,3.582-8,8L217.12,464h-24L208,369.2c0.04-0.399,0.04-0.801,0-1.2v-64c0-4.418-3.582-8-8-8h-48    c-14.583-0.011-27.314-9.88-30.96-24h237.92C355.315,286.12,342.583,295.989,328,296z M352.48,247.04L308.96,160h93.28    L352.48,247.04z M456,144h-96v-16c0-26.51,21.49-48,48-48c26.51,0,48,21.49,48,48V144z" data-original="#000000" class="active-path" data-old_color="#000000" fill="#F24259"/>
	</g>
</g></g> </svg>
