<?xml version="1.0"?>
<svg xmlns="http://www.w3.org/2000/svg" xmlns:xlink="http://www.w3.org/1999/xlink" version="1.1" id="Capa_1" x="0px" y="0px" viewBox="0 0 480 480" style="enable-background:new 0 0 480 480;" xml:space="preserve" width="512px" height="512px" class=""><g><g>
	<g>
		<path d="M240,111.483c-22.091,0-40,17.909-40,40s17.909,40,40,40c22.091,0,40-17.909,40-40S262.091,111.483,240,111.483z     M240,175.483c-13.255,0-24-10.745-24-24s10.745-24,24-24s24,10.745,24,24S253.255,175.483,240,175.483z" data-original="#000000" class="active-path" data-old_color="#000000" fill="#F24259"/>
	</g>
</g><g>
	<g>
		<path d="M472,143.483h-80C387.009,59.685,315.03-4.201,231.231,0.79C156.47,5.243,96.094,63.49,88.96,138.043c0,1.84,0,3.6,0,5.44    H8c-4.418,0-8,3.582-8,8c0.018,17.131,9.164,32.954,24,41.52c0.548,16.586,9.623,31.712,24,40    c0.821,25.914,22.073,46.493,48,46.48h56c20.485,24.771,31.789,55.856,32,88v1.6c-9.511,3.362-15.904,12.313-16,22.4    c0.035,5.92,2.258,11.619,6.24,16c-3.982,4.381-6.205,10.08-6.24,16c0,13.255,10.745,24,24,24h11.04l13.84,27.6    c1.356,2.69,4.108,4.391,7.12,4.4h32c3.012-0.009,5.764-1.71,7.12-4.4l13.84-27.6H288c13.255,0,24-10.745,24-24    c-0.035-5.92-2.258-11.619-6.24-16c3.982-4.381,6.205-10.08,6.24-16c-0.029-10.146-6.434-19.178-16-22.56v-1.44    c0.178-32.15,11.486-63.245,32-88h56c25.927,0.013,47.179-20.566,48-46.48c14.377-8.288,23.452-23.414,24-40    c14.836-8.566,23.982-24.389,24-41.52C480,147.065,476.418,143.483,472,143.483z M96,263.483c-14.583-0.011-27.314-9.88-30.96-24    H88v-16H72c-14.583-0.011-27.314-9.88-30.96-24H64v-16H48c-14.583-0.011-27.314-9.88-30.96-24H88    c1.96,39.313,19.181,76.31,48,103.12l0.88,0.88H96z M251.04,463.483h-22.08l-8-16h38.08L251.04,463.483z M288,431.483h-96    c-4.418,0-8-3.582-8-8s3.582-8,8-8h96c4.418,0,8,3.582,8,8S292.418,431.483,288,431.483z M288,399.483h-96c-4.418,0-8-3.582-8-8    s3.582-8,8-8h96c4.418,0,8,3.582,8,8S292.418,399.483,288,399.483z M192,180.523c-3.057-4.943-5.299-10.345-6.64-16    c-0.737-3.073-3.213-5.424-6.32-6l-19.04-3.36c0-1.28,0-2.48,0-3.68s0-2.4,0-3.68l19.2-3.52c3.107-0.576,5.583-2.927,6.32-6    c1.341-5.655,3.583-11.057,6.64-16c1.723-2.651,1.723-6.069,0-8.72l-11.04-16c1.611-1.851,3.349-3.589,5.2-5.2l16,11.04    c2.651,1.723,6.069,1.723,8.72,0c4.957-3.03,10.354-5.27,16-6.64c3.073-0.737,5.424-3.213,6-6.32l3.52-19.2h7.36l3.52,19.2    c0.576,3.107,2.927,5.583,6,6.32c5.645,1.37,11.043,3.61,16,6.64c2.651,1.723,6.069,1.723,8.72,0l16-11.04    c1.858,1.631,3.621,3.367,5.28,5.2l-11.12,16c-1.723,2.651-1.723,6.069,0,8.72c3.057,4.943,5.299,10.345,6.64,16    c0.737,3.073,3.213,5.424,6.32,6l19.2,3.52c0,1.28,0,2.48,0,3.68s0,2.4,0,3.68l-19.2,3.52c-3.107,0.576-5.583,2.927-6.32,6    c-1.341,5.655-3.583,11.057-6.64,16c-1.723,2.651-1.723,6.069,0,8.72l11.04,16c-1.611,1.851-3.349,3.589-5.2,5.2l-16-11.04    c-2.651-1.723-6.069-1.723-8.72,0c-4.943,3.057-10.345,5.299-16,6.64c-3.073,0.737-5.424,3.213-6,6.32l-3.76,18.96    c-2.56,0-4.8,0-7.36,0l-3.52-19.2c-0.576-3.107-2.927-5.583-6-6.32c-5.645-1.37-11.043-3.61-16-6.64    c-2.651-1.723-6.069-1.723-8.72,0l-16,11.04c-1.858-1.631-3.621-3.367-5.28-5.2l11.12-16    C193.633,186.547,193.665,183.171,192,180.523z M331.36,252.443c-32.606,29.367-51.264,71.159-51.36,115.04h-32v-120h3.36    c3.491-0.397,6.315-3.026,6.96-6.48l3.76-20.32c3.723-1.407,7.311-3.147,10.72-5.2l16.96,11.76c2.828,2.094,6.692,2.094,9.52,0    c5.942-4.687,11.313-10.058,16-16c2.094-2.828,2.094-6.692,0-9.52L304,184.283c1.806-3.435,3.305-7.022,4.48-10.72l20.32-3.76    c3.454-0.645,6.083-3.469,6.48-6.96c0.96-7.543,0.96-15.177,0-22.72c-0.397-3.491-3.026-6.315-6.48-6.96l-20.32-3.76    c-1.175-3.698-2.674-7.285-4.48-10.72l11.76-16.96c2.094-2.828,2.094-6.692,0-9.52c-4.687-5.942-10.058-11.313-16-16    c-2.828-2.094-6.692-2.094-9.52,0l-17.44,11.28c-3.435-1.806-7.022-3.305-10.72-4.48l-3.76-20.32    c-0.645-3.454-3.469-6.083-6.96-6.48c-7.543-0.96-15.177-0.96-22.72,0c-3.491,0.397-6.315,3.026-6.96,6.48l-3.76,20.32    c-3.698,1.175-7.285,2.674-10.72,4.48l-16.96-11.76c-2.828-2.094-6.692-2.094-9.52,0c-5.942,4.687-11.313,10.058-16,16    c-2.094,2.828-2.094,6.692,0,9.52l11.28,17.44c-1.806,3.435-3.305,7.022-4.48,10.72l-20.32,3.76    c-3.454,0.645-6.083,3.469-6.48,6.96c-0.96,7.543-0.96,15.177,0,22.72c0.397,3.491,3.026,6.315,6.48,6.96l20.32,3.76    c1.175,3.698,2.674,7.285,4.48,10.72l-11.76,16.96c-2.094,2.828-2.094,6.692,0,9.52c4.687,5.942,10.058,11.313,16,16    c2.828,2.094,6.692,2.094,9.52,0l17.44-11.28c3.435,1.806,7.022,3.305,10.72,4.48l3.76,20.32c0.645,3.454,3.469,6.083,6.96,6.48    l3.36,0.72v120h-32c-0.429-44.469-19.531-86.71-52.64-116.4c-54.938-51.219-57.954-137.277-6.735-192.215    C191.844,3.93,277.902,0.915,332.841,52.134c54.938,51.219,57.954,137.277,6.735,192.215    C336.952,247.162,334.212,249.863,331.36,252.443z M432,183.483h-16v16h22.96c-3.646,14.12-16.377,23.989-30.96,24h-16v16h22.96    c-3.646,14.12-16.377,23.989-30.96,24h-41.52c29.512-26.827,47.297-64.179,49.52-104h71.36    C459.678,173.749,446.732,183.656,432,183.483z" data-original="#000000" class="active-path" data-old_color="#000000" fill="#F24259"/>
	</g>
</g></g> </svg>
